<svg width="64" height="64" viewBox="0 0 64 64" fill="none" xmlns="http://www.w3.org/2000/svg">
<g clip-path="url(#clip0_106_1262)">
<path d="M19.7925 60.6655C19.7934 61.5492 20.1447 62.3965 20.7693 63.0215C21.394 63.6466 22.241 63.9985 23.1247 64H40.8776C41.7611 63.9982 42.6078 63.6462 43.2323 63.0211C43.8567 62.3961 44.2078 61.549 44.2087 60.6655V49.7958H19.7925V60.6655ZM22.6621 52.6644H41.3401V55.3807H22.6621V52.6644ZM22.6621 58.2504H41.3401V60.6655C41.337 60.7872 41.2873 60.903 41.2012 60.9891C41.1151 61.0751 40.9993 61.1249 40.8776 61.128H23.1201C22.9985 61.1249 22.8827 61.0751 22.7966 60.9891C22.7105 60.903 22.6608 60.7872 22.6577 60.6655L22.6621 58.2504ZM32.0012 -3.74821e-05C27.914 -0.0039775 23.9055 1.12276 20.4189 3.25553C16.9324 5.3883 14.1038 8.44397 12.2461 12.0845C10.3883 15.725 9.57391 19.8085 9.89281 23.8831C10.2117 27.9578 11.6515 31.8648 14.053 35.172L15.2634 36.758C15.2634 36.758 16.3915 37.939 17.5127 39.3694C18.4239 40.3759 19.1177 41.5593 19.551 42.846V47.7732H44.4264V42.846C44.8621 41.5607 45.5554 40.3778 46.4636 39.3694C47.5838 37.939 48.7197 36.7625 48.7197 36.758L49.9109 35.225C52.3251 31.9201 53.7769 28.0112 54.1051 23.9316C54.4334 19.852 53.6253 15.7612 51.7705 12.1128C49.9157 8.46446 47.0867 5.4011 43.5972 3.26243C40.1076 1.12376 36.0939 -0.00663043 32.0012 -0.00341111V-3.74821e-05ZM46.5753 34.8133L46.0666 35.3965C45.603 35.912 44.9092 36.7039 44.2087 37.6006C43.0051 39.2352 41.6706 40.8539 41.5578 42.846C41.5578 43.6627 41.5578 44.3564 41.5578 44.9046H33.436V30.9272C34.8987 30.576 36.1816 29.7004 37.0417 28.4663C37.9018 27.2322 38.2792 25.7254 38.1023 24.2316C37.9255 22.7378 37.2068 21.3607 36.0824 20.3616C34.9579 19.3624 33.506 18.8105 32.0017 18.8105C30.4975 18.8105 29.0455 19.3624 27.9211 20.3616C26.7966 21.3607 26.0779 22.7378 25.901 24.2316C25.7242 25.7254 26.1016 27.2322 26.9617 28.4663C27.8218 29.7004 29.1048 30.576 30.5674 30.9272V44.9046H22.4207V42.846C22.3079 40.8539 20.9724 39.2363 19.771 37.6006C19.3999 37.1269 19.0311 36.6824 18.6972 36.2887H18.705L17.4236 34.811C14.9953 32.0153 13.4223 28.5802 12.8921 24.9154C12.3619 21.2505 12.8968 17.5105 14.4332 14.1412C15.9695 10.7719 18.4424 7.91553 21.557 5.91261C24.6716 3.90969 28.2964 2.84474 31.9994 2.84474C35.7025 2.84474 39.3273 3.90969 42.4419 5.91261C45.5565 7.91553 48.0294 10.7719 49.5657 14.1412C51.102 17.5105 51.637 21.2505 51.1068 24.9154C50.5766 28.5802 49.0036 32.0153 46.5753 34.811V34.8133ZM32.0023 28.2436C31.3553 28.2436 30.7228 28.0518 30.1848 27.6923C29.6469 27.3329 29.2276 26.8219 28.98 26.2242C28.7324 25.6264 28.6676 24.9687 28.7938 24.3341C28.92 23.6996 29.2316 23.1167 29.6891 22.6592C30.1466 22.2017 30.7295 21.8901 31.3641 21.7639C31.9987 21.6377 32.6564 21.7025 33.2542 21.9501C33.8519 22.1976 34.3628 22.6169 34.7222 23.1549C35.0817 23.6929 35.2736 24.3253 35.2736 24.9723C35.2736 25.4019 35.189 25.8273 35.0246 26.2242C34.8602 26.6211 34.6192 26.9817 34.3154 27.2855C34.0116 27.5892 33.6511 27.8302 33.2542 27.9946C32.8573 28.159 32.4319 28.2436 32.0023 28.2436V28.2436Z" fill="#3182CE"/>
</g>
<defs>
<clipPath id="clip0_106_1262">
<rect width="64" height="64" fill="white"/>
</clipPath>
</defs>
</svg>
